<svg id="_1-2" data-name="1" xmlns="http://www.w3.org/2000/svg" xmlns:xlink="http://www.w3.org/1999/xlink" width="1080" height="289" viewBox="0 0 1080 289">
  <defs>
    <style>
      .cls-1 {
        fill: none;
        stroke: #f0f3f6;
        stroke-width: 2px;
        stroke-dasharray: 22.12 11.06;
      }

      .cls-1, .cls-5, .cls-6, .cls-7, .cls-8, .cls-9 {
        fill-rule: evenodd;
      }

      .cls-2, .cls-5, .cls-7, .cls-8, .cls-9 {
        fill: #fff;
      }

      .cls-2 {
        stroke: #36aeea;
        stroke-width: 3px;
      }

      .cls-3 {
        font-size: 16px;
        fill: #3bb0eb;
        text-anchor: middle;
        font-family: Roboto;
        font-weight: 800;
        text-transform: uppercase;
      }

      .cls-4 {
        fill: #f0f3f6;
      }

      .cls-5 {
        filter: url(#filter);
      }

      .cls-6 {
        fill: #404041;
      }

      .cls-7 {
        filter: url(#filter-2);
      }

      .cls-8 {
        filter: url(#filter-3);
      }

      .cls-9 {
        filter: url(#filter-4);
      }
    </style>
    <filter id="filter" x="37" y="137" width="124" height="135" filterUnits="userSpaceOnUse">
      <feOffset result="offset" dy="5" in="SourceAlpha"/>
      <feGaussianBlur result="blur" stdDeviation="2.236"/>
      <feFlood result="flood" flood-opacity="0.19"/>
      <feComposite result="composite" operator="in" in2="blur"/>
      <feBlend result="blend" in="SourceGraphic"/>
    </filter>
    <filter id="filter-2" x="329" y="137" width="124" height="135" filterUnits="userSpaceOnUse">
      <feOffset result="offset" dy="5" in="SourceAlpha"/>
      <feGaussianBlur result="blur" stdDeviation="2.236"/>
      <feFlood result="flood" flood-opacity="0.19"/>
      <feComposite result="composite" operator="in" in2="blur"/>
      <feBlend result="blend" in="SourceGraphic"/>
    </filter>
    <filter id="filter-3" x="623" y="137" width="124" height="135" filterUnits="userSpaceOnUse">
      <feOffset result="offset" dy="5" in="SourceAlpha"/>
      <feGaussianBlur result="blur" stdDeviation="2.236"/>
      <feFlood result="flood" flood-opacity="0.19"/>
      <feComposite result="composite" operator="in" in2="blur"/>
      <feBlend result="blend" in="SourceGraphic"/>
    </filter>
    <filter id="filter-4" x="915" y="137" width="124" height="135" filterUnits="userSpaceOnUse">
      <feOffset result="offset" dy="5" in="SourceAlpha"/>
      <feGaussianBlur result="blur" stdDeviation="2.236"/>
      <feFlood result="flood" flood-opacity="0.19"/>
      <feComposite result="composite" operator="in" in2="blur"/>
      <feBlend result="blend" in="SourceGraphic"/>
    </filter>
  </defs>
  <path class="cls-1" d="M100,28V26H987v2H100Zm-1-2h2V145H99V26Zm0,0h2V145H99V26Z"/>
  <path id="Shape_166_copy" data-name="Shape 166 copy" class="cls-1" d="M390,23h2V147h-2V23Z"/>
  <path id="Shape_166_copy_2" data-name="Shape 166 copy 2" class="cls-1" d="M685,23h2V147h-2V23Z"/>
  <path id="Shape_166_copy_3" data-name="Shape 166 copy 3" class="cls-1" d="M977,23h2V147h-2V23Z"/>
  <circle class="cls-2" cx="100" cy="28" r="24"/>
  <text id="_1" data-name="1" class="cls-3" x="100.445" y="33.495"><tspan x="100.445">1</tspan></text>
  <circle id="Ellipse_23_copy" data-name="Ellipse 23 copy" class="cls-2" cx="391" cy="28" r="24"/>
  <text id="_2" data-name="2" class="cls-3" x="391.445" y="33.495"><tspan x="391.445">2</tspan></text>
  <circle id="Ellipse_23_copy_2" data-name="Ellipse 23 copy 2" class="cls-2" cx="686" cy="28" r="24"/>
  <text id="_3" data-name="3" class="cls-3" x="686.445" y="33.495"><tspan x="686.445">3</tspan></text>
  <circle id="Ellipse_23_copy_3" data-name="Ellipse 23 copy 3" class="cls-2" cx="978" cy="28" r="24"/>
  <text id="_4" data-name="4" class="cls-3" x="978.445" y="33.495"><tspan x="978.445">4</tspan></text>
  <circle class="cls-4" cx="100.5" cy="199.5" r="89.5"/>
  <path id="Polygon_1_copy_4" data-name="Polygon 1 copy 4" class="cls-5" d="M112.838,141.991c11.531,5.9,19.841,10.546,30.618,16.531,10.43,5.2,12.551,11.569,12.527,24.682,0,11.887.036,21.074,0,34.459,0.044,13.371-2.616,15.57-13.216,22.493-9.908,5.765-18.666,10.805-29.929,17.13-9.881,6.41-18.218,6.148-27.234,0-11.011-5.974-18.962-10.548-29.928-17.13-10.6-6.469-14.456-11.411-14.642-24.083,0.03-12.09-.1-20.749,0-32.869C41,170.779,45.245,164.17,55.675,159.122c11.2-7.044,18.918-11.478,29.929-17.131C97.717,135.349,100.793,135.3,112.838,141.991Z"/>
  <path id="_1-3" data-name="1" class="cls-6" d="M111.077,222H88.923A4.961,4.961,0,0,1,84,217V187a4.962,4.962,0,0,1,4.923-5h14.769c1.648-.026,2.3.035,2.462,0.035V182L116,192v25A4.961,4.961,0,0,1,111.077,222Zm-4.923-37.5v5a2.482,2.482,0,0,0,2.461,2.5h4.923Zm7.384,10h-4.923a4.963,4.963,0,0,1-4.923-5s-0.057-2.006-.035-5H88.923a2.481,2.481,0,0,0-2.462,2.5v30a2.481,2.481,0,0,0,2.462,2.5h22.154a2.481,2.481,0,0,0,2.461-2.5V194.5ZM107.385,212H92.615a1.25,1.25,0,0,1,0-2.5h14.77A1.25,1.25,0,0,1,107.385,212Zm0-7.5H92.615a1.25,1.25,0,0,1,0-2.5h14.77A1.25,1.25,0,0,1,107.385,204.5Z"/>
  <circle class="cls-4" cx="392.5" cy="199.5" r="89.5"/>
  <path id="Polygon_1_copy_4-2" data-name="Polygon 1 copy 4" class="cls-7" d="M404.838,141.991c11.531,5.9,19.841,10.546,30.618,16.531,10.43,5.2,12.551,11.569,12.527,24.682,0,11.887.036,21.074,0,34.459,0.044,13.371-2.616,15.57-13.216,22.493-9.908,5.765-18.666,10.805-29.929,17.13-9.881,6.41-18.219,6.148-27.234,0-11.011-5.974-18.962-10.548-29.929-17.13-10.6-6.469-14.456-11.411-14.642-24.083,0.03-12.09-.1-20.749,0-32.869-0.037-12.425,4.212-19.034,14.642-24.082,11.2-7.044,18.918-11.478,29.929-17.131C389.717,135.349,392.793,135.3,404.838,141.991Z"/>
  <path id="_7" data-name="7" class="cls-6" d="M412.75,206h-7.5a1.25,1.25,0,0,1,0-2.5h7.5A1.25,1.25,0,0,1,412.75,206Zm0-7.5h-10a1.25,1.25,0,1,1,0-2.5h10A1.25,1.25,0,1,1,412.75,198.5Zm0-7.5h-10a1.251,1.251,0,0,1,0-2.5h10A1.251,1.251,0,0,1,412.75,191ZM401.5,208.5v5A7.5,7.5,0,0,1,394,221H381.5a7.5,7.5,0,0,1-7.5-7.5v-5a7.476,7.476,0,0,1,5.062-7.059A13.311,13.311,0,0,1,376.5,193.5c0-6.905,5.037-12.5,11.25-12.5s11.25,5.6,11.25,12.5a13.311,13.311,0,0,1-2.562,7.939A7.477,7.477,0,0,1,401.5,208.5Zm-5-15c0-5.524-3.918-10-8.75-10s-8.75,4.476-8.75,10,3.917,10,8.75,10S396.5,199.021,396.5,193.5Zm2.5,15.624a5.744,5.744,0,0,0-4.72-5.46,10.3,10.3,0,0,1-13.06,0,5.744,5.744,0,0,0-4.72,5.46v3.75a5.9,5.9,0,0,0,6.136,5.625h10.228A5.9,5.9,0,0,0,399,212.873v-3.75ZM405.25,211h7.5a1.25,1.25,0,0,1,0,2.5h-7.5A1.25,1.25,0,0,1,405.25,211Z"/>
  <circle class="cls-4" cx="686.5" cy="199.5" r="89.5"/>
  <path id="Polygon_1_copy_4-3" data-name="Polygon 1 copy 4" class="cls-8" d="M698.838,141.991c11.531,5.9,19.841,10.546,30.618,16.531,10.43,5.2,12.551,11.569,12.527,24.682,0,11.887.036,21.074,0,34.459,0.044,13.371-2.616,15.57-13.216,22.493-9.908,5.765-18.666,10.805-29.929,17.13-9.881,6.41-18.219,6.148-27.234,0-11.011-5.974-18.962-10.548-29.929-17.13-10.6-6.469-14.456-11.411-14.642-24.083,0.03-12.09-.1-20.749,0-32.869-0.037-12.425,4.212-19.034,14.642-24.082,11.2-7.044,18.918-11.478,29.929-17.131C683.717,135.349,686.793,135.3,698.838,141.991Z"/>
  <path id="_7-2" data-name="7" class="cls-6" d="M702.25,216.435s-6.4,1.781-13.072,3.563h-2.4c-6.619-1.782-13.023-3.563-13.023-3.563-2.512-.816-4.75-2.126-4.75-4.751V186.747A4.75,4.75,0,0,1,673.75,182s7.072,1.967,13.023,3.562c0.784,0,1.572.03,2.356,0C695.376,183.89,702.25,182,702.25,182a4.75,4.75,0,0,1,4.75,4.749v24.937C707,214.309,704.688,215.8,702.25,216.435Zm-28.5-32.062a2.375,2.375,0,0,0-2.375,2.374v24.937c0,1.313,1.026,2,2.375,2.377,0,0,6.577,1.816,13.062,3.559V187.934Zm30.875,2.374a2.375,2.375,0,0,0-2.375-2.374l-13.063,3.561V217.6c6.6-1.736,13.063-3.534,13.063-3.534,1.274-.409,2.375-1.064,2.375-2.377V186.747Z"/>
  <circle class="cls-4" cx="978.5" cy="199.5" r="89.5"/>
  <path id="Polygon_1_copy_4-4" data-name="Polygon 1 copy 4" class="cls-9" d="M990.838,141.991c11.532,5.9,19.842,10.546,30.622,16.531,10.43,5.2,12.55,11.569,12.52,24.682,0,11.887.04,21.074,0,34.459,0.05,13.371-2.61,15.57-13.21,22.493-9.91,5.765-18.67,10.805-29.932,17.13-9.881,6.41-18.219,6.148-27.234,0-11.011-5.974-18.962-10.548-29.929-17.13-10.6-6.469-14.456-11.411-14.642-24.083,0.03-12.09-.1-20.749,0-32.869-0.037-12.425,4.212-19.034,14.642-24.082,11.2-7.044,18.918-11.478,29.929-17.131C975.717,135.349,978.793,135.3,990.838,141.991Z"/>
  <path id="_1-4" data-name="1" class="cls-6" d="M978,218a19,19,0,1,1,19-19A19,19,0,0,1,978,218Zm0-35.623A16.624,16.624,0,1,0,994.625,199,16.624,16.624,0,0,0,978,182.374Zm0.548,24.271a1.174,1.174,0,0,1-.295.478,1.189,1.189,0,0,1-1.678-.056l-5.43-5.007a1.188,1.188,0,0,1,1.734-1.624l4.249,3.919,7.594-13.155a1.188,1.188,0,0,1,2.057,1.188Z"/>
</svg>
