<?xml version="1.0" encoding="utf-8"?>
<!-- Generator: Adobe Illustrator 23.0.3, SVG Export Plug-In . SVG Version: 6.00 Build 0)  -->
<svg version="1.1" id="Layer_1" xmlns="http://www.w3.org/2000/svg" xmlns:xlink="http://www.w3.org/1999/xlink" x="0px" y="0px"
	 viewBox="0 0 42.8 54" style="enable-background:new 0 0 42.8 54;" xml:space="preserve">
<style type="text/css">
	.st0{fill:#fff;}
</style>
<g>
	<path class="st0" d="M12.9,29.4c0.2-3.7-3.5-3.1-3.8,2.1C8.8,38.6,14.7,44.7,22.4,45c3.7,0.2,5.9-2,3.8-2.1
		C18.5,42.6,12.6,36.5,12.9,29.4z"/>
	<g>
		<path class="st0" d="M21.4,54C9.6,54,0,44.4,0,32.6c0-11.2,17.7-29.9,19.8-32c0.9-0.9,2.4-0.9,3.2,0c2,2.1,19.8,20.8,19.8,32
			C42.8,44.4,33.2,54,21.4,54z M21.4,5.5c-6,6.5-17.1,20-17.1,27.3c0,9.4,7.7,17,17.1,17s17.1-7.6,17.1-17
			C38.5,25.5,27.3,12,21.4,5.5z"/>
	</g>
</g>
</svg>
