<?xml version="1.0" encoding="utf-8"?>
<!-- Generator: Adobe Illustrator 23.0.3, SVG Export Plug-In . SVG Version: 6.00 Build 0)  -->
<svg version="1.1" id="Layer_1" xmlns="http://www.w3.org/2000/svg" xmlns:xlink="http://www.w3.org/1999/xlink" x="0px" y="0px"
	 viewBox="0 0 61.4 61.4" style="enable-background:new 0 0 61.4 61.4;" xml:space="preserve">
<style type="text/css">
	.st0{fill:#fff;}
	.st1{fill:#fff;}
</style>
<g>
	<g>
		<g>
			<g>
				<path class="st0" d="M30.7,61.4C13.8,61.4,0,47.6,0,30.7C0,13.8,13.8,0,30.7,0c16.9,0,30.7,13.8,30.7,30.7
					C61.4,47.6,47.6,61.4,30.7,61.4z M30.7,4.6C16.3,4.6,4.6,16.3,4.6,30.7c0,14.4,11.7,26.1,26.1,26.1c14.4,0,26.1-11.7,26.1-26.1
					C56.8,16.3,45.1,4.6,30.7,4.6z"/>
			</g>
		</g>
	</g>
	<g>
		<path class="st1" d="M30.7,43.5c-0.1,0-0.3,0-0.4-0.1C29.8,43.2,18,38.7,18,29.6c0-3.5,3.1-6.3,6.9-6.3c2.4,0,4.6,1.6,5.9,3.3
			c1.2-1.7,3.2-3.3,5.5-3.3c3.8,0,6.9,2.8,6.9,6.3c0,9.3-11.7,13.7-12.2,13.9C30.9,43.5,30.8,43.5,30.7,43.5z"/>
	</g>
</g>
</svg>
