<?xml version="1.0" encoding="utf-8"?>
<!-- Generator: Adobe Illustrator 23.0.3, SVG Export Plug-In . SVG Version: 6.00 Build 0)  -->
<svg version="1.1" id="Layer_1" xmlns="http://www.w3.org/2000/svg" xmlns:xlink="http://www.w3.org/1999/xlink" x="0px" y="0px"
	 viewBox="0 0 51.9 51.9" style="enable-background:new 0 0 51.9 51.9;" xml:space="preserve">
<style type="text/css">
	.st0{fill:#fff;}
</style>
<g>
	<g>
		<path class="st0" d="M0,10.3C0,7,0.9,4.4,2.7,2.7C4.4,0.9,7,0,10.3,0c10.5,0,27.2,9.2,33.4,15.4c3.8,3.8,5.9,8.8,5.9,14.2
			s-2.1,10.4-5.9,14.2c-3.8,3.8-8.8,5.9-14.2,5.9c-5.4,0-10.4-2.1-14.2-5.9C9.2,37.5,0,20.8,0,10.3z M45.2,29.7
			c0-4.2-1.6-8.2-4.6-11.2C35.1,12.8,19.3,4.2,10.3,4.2c-2.1,0-3.7,0.5-4.6,1.4c-0.9,0.9-1.4,2.5-1.4,4.7c0,9.1,8.5,25,14.1,30.6
			c3,3,6.9,4.6,11.1,4.6c4.2,0,8.1-1.6,11.1-4.6C43.6,37.9,45.2,33.9,45.2,29.7z"/>
	</g>
	<g>
		<path class="st0" d="M3.1,4.8c0-0.6,0.2-1.1,0.6-1.5c0.9-0.8,2.2-0.8,3.1,0l44.5,44.9c0.8,0.9,0.8,2.2,0,3.1
			c-0.9,0.8-2.2,0.8-3.1,0L3.7,6.3C3.3,5.9,3.1,5.3,3.1,4.8z"/>
	</g>
	<g>
		<path class="st0" d="M30.4,30.3V14.9c0-1.2,0.9-2.2,2.1-2.2c1.2,0,2.1,1,2.1,2.2v15.3c0,1.2-0.9,2.2-2.1,2.2
			C31.3,32.5,30.4,31.5,30.4,30.3z"/>
	</g>
	<g>
		<path class="st0" d="M10.8,26c0-1.1,1-2.1,2.3-2.1h10.3c1.3,0,2.3,0.9,2.3,2.1c0,1.1-1,2.1-2.3,2.1H13.1
			C11.8,28,10.8,27.1,10.8,26z"/>
	</g>
	<g>
		<path class="st0" d="M17.3,17V8.7c0-1.2,0.9-2.2,2.1-2.2c1.1,0,2.1,1,2.1,2.2V17c0,1.2-0.9,2.2-2.1,2.2
			C18.3,19.3,17.3,18.3,17.3,17z"/>
	</g>
	<g>
		<path class="st0" d="M21.8,39c0-1.1,1-2,2.2-2h15c1.2,0,2.2,0.9,2.2,2c0,1.1-1,2-2.2,2H24C22.7,41,21.8,40.1,21.8,39z"/>
	</g>
</g>
</svg>
